<svg xmlns="http://www.w3.org/2000/svg" xmlns:xlink="http://www.w3.org/1999/xlink" width="400" zoomAndPan="magnify" viewBox="0 0 300 299.999988" height="400" preserveAspectRatio="xMidYMid meet" version="1.0"><defs><clipPath id="0c4023a081"><path d="M 0 65.15625 L 300 65.15625 L 300 233.90625 L 0 233.90625 Z M 0 65.15625 " clip-rule="nonzero"/></clipPath></defs><g clip-path="url(#0c4023a081)"><rect x="-30" width="360" fill="#ffffff" y="-29.999999" height="359.999986" fill-opacity="1"/><rect x="-30" width="360" fill="#ffffff" y="-29.999999" height="359.999986" fill-opacity="1"/></g><path fill="#000000" d="M 50.019531 159.347656 C 50.429688 157.25 50.761719 155.390625 51.011719 153.773438 C 51.261719 152.15625 51.535156 150.453125 51.828125 148.667969 C 52.121094 146.890625 52.496094 144.671875 52.953125 142.019531 C 51.265625 144.671875 49.75 146.742188 48.40625 148.230469 C 47.054688 149.710938 45.867188 150.769531 44.835938 151.410156 C 43.8125 152.050781 42.9375 152.445312 42.210938 152.582031 C 41.480469 152.710938 40.867188 152.757812 40.367188 152.710938 C 38.8125 152.613281 37.589844 151.996094 36.699219 150.855469 C 35.8125 149.714844 35.261719 148.257812 35.054688 146.484375 C 34.851562 144.703125 34.953125 142.808594 35.363281 140.796875 C 35.777344 138.785156 36.472656 136.859375 37.449219 135.007812 C 38.429688 133.164062 39.683594 131.585938 41.214844 130.28125 C 42.75 128.976562 44.542969 128.191406 46.59375 127.917969 C 49.789062 127.503906 52.390625 128.714844 54.402344 131.550781 L 54.875 129.351562 C 55.105469 128.722656 55.511719 128.273438 56.097656 128 C 56.695312 127.71875 57.3125 127.585938 57.957031 127.609375 C 58.597656 127.632812 59.121094 127.78125 59.523438 128.0625 C 59.933594 128.335938 60.097656 128.746094 60.011719 129.285156 C 59.414062 131.984375 58.8125 134.988281 58.21875 138.300781 C 57.632812 141.605469 57.085938 144.847656 56.589844 148.019531 C 56.085938 151.191406 55.609375 153.984375 55.152344 156.398438 C 57.109375 155.167969 59.300781 153.578125 61.722656 151.621094 C 64.144531 149.65625 66.566406 147.527344 68.976562 145.246094 C 71.398438 142.964844 73.566406 140.707031 75.484375 138.464844 C 75.582031 138.324219 75.816406 138.253906 76.199219 138.253906 C 76.589844 138.253906 76.785156 138.347656 76.785156 138.53125 C 74.546875 141.226562 72.09375 143.828125 69.417969 146.339844 C 66.753906 148.847656 64.167969 151.097656 61.660156 153.085938 C 59.148438 155.0625 56.957031 156.601562 55.089844 157.699219 C 53.71875 165.871094 52.140625 173.015625 50.359375 179.136719 C 48.574219 185.253906 46.597656 189.988281 44.425781 193.335938 C 42.261719 196.695312 39.835938 198.394531 37.140625 198.441406 C 35.914062 198.441406 34.902344 197.808594 34.109375 196.550781 C 33.304688 195.296875 32.789062 193.597656 32.558594 191.445312 C 32.332031 189.300781 32.457031 186.886719 32.933594 184.191406 C 33.414062 181.507812 34.328125 178.691406 35.671875 175.746094 C 37.019531 172.800781 38.867188 169.910156 41.214844 167.074219 C 43.5625 164.246094 46.496094 161.671875 50.019531 159.347656 Z M 49.808594 160.847656 C 46.523438 163.128906 43.796875 165.628906 41.625 168.347656 C 39.460938 171.0625 37.757812 173.824219 36.519531 176.628906 C 35.292969 179.441406 34.449219 182.125 33.992188 184.679688 C 33.539062 187.230469 33.414062 189.507812 33.617188 191.496094 C 33.828125 193.484375 34.269531 195.007812 34.957031 196.078125 C 35.640625 197.152344 36.480469 197.597656 37.484375 197.414062 C 38.664062 197.183594 39.832031 195.984375 40.972656 193.808594 C 42.113281 191.644531 43.222656 188.84375 44.296875 185.398438 C 45.371094 181.949219 46.375 178.101562 47.3125 173.855469 C 48.246094 169.617188 49.078125 165.28125 49.808594 160.847656 Z M 54.128906 133.394531 C 53.898438 132.667969 53.429688 131.941406 52.726562 131.210938 C 52.015625 130.484375 51.21875 129.902344 50.328125 129.464844 C 49.4375 129.035156 48.574219 128.929688 47.753906 129.15625 C 46.292969 129.515625 45.03125 130.304688 43.953125 131.519531 C 42.878906 132.726562 41.972656 134.167969 41.25 135.839844 C 40.519531 137.503906 39.960938 139.226562 39.570312 141.007812 C 39.1875 142.78125 38.980469 144.457031 38.949219 146.027344 C 38.925781 147.605469 39.085938 148.921875 39.421875 149.972656 C 39.769531 151.015625 40.285156 151.613281 40.972656 151.75 C 41.65625 151.882812 42.578125 151.621094 43.742188 150.96875 C 44.917969 150.308594 46.285156 149.074219 47.851562 147.269531 C 49.425781 145.464844 51.195312 142.914062 53.164062 139.621094 C 53.25 139.535156 53.363281 138.933594 53.507812 137.8125 C 53.644531 136.695312 53.855469 135.21875 54.128906 133.394531 Z M 54.128906 133.394531 " fill-opacity="1" fill-rule="nonzero"/><path fill="#000000" d="M 268.890625 147.71875 C 270.984375 149.445312 271.992188 147.078125 270.203125 145.574219 C 244.796875 124.296875 198.957031 118.140625 159.972656 138.714844 C 119.542969 160.050781 90.769531 149.253906 76.648438 138.226562 L 75.933594 139.136719 C 89.515625 149.738281 118.65625 161.167969 160.226562 139.828125 C 201.605469 118.59375 242.949219 126.382812 268.890625 147.71875 Z M 268.890625 147.71875 " fill-opacity="1" fill-rule="nonzero"/><path fill="#000000" d="M 79.007812 170.585938 C 78.734375 170.804688 78.308594 171.003906 77.71875 171.1875 C 77.140625 171.359375 76.613281 171.449219 76.125 171.449219 C 75.1875 171.449219 74.363281 171.261719 73.644531 170.878906 C 72.9375 170.488281 72.394531 169.960938 72.015625 169.296875 C 71.632812 168.636719 71.445312 167.886719 71.445312 167.046875 C 71.445312 166.070312 71.648438 165.230469 72.0625 164.523438 C 72.476562 163.804688 73.03125 163.257812 73.726562 162.875 C 74.433594 162.496094 75.199219 162.304688 76.023438 162.304688 C 76.535156 162.304688 77.011719 162.367188 77.460938 162.484375 C 77.902344 162.605469 78.300781 162.761719 78.648438 162.957031 L 78.257812 164.066406 C 77.996094 163.914062 77.664062 163.785156 77.265625 163.671875 C 76.859375 163.566406 76.496094 163.511719 76.171875 163.511719 C 75.488281 163.511719 74.875 163.652344 74.347656 163.933594 C 73.8125 164.207031 73.402344 164.601562 73.105469 165.125 C 72.820312 165.644531 72.683594 166.257812 72.683594 166.949219 C 72.683594 167.59375 72.820312 168.167969 73.105469 168.679688 C 73.402344 169.179688 73.808594 169.566406 74.328125 169.835938 C 74.859375 170.109375 75.460938 170.242188 76.140625 170.242188 C 76.453125 170.242188 76.757812 170.21875 77.050781 170.160156 C 77.355469 170.097656 77.605469 170.007812 77.800781 169.886719 L 77.800781 168.125 L 76.023438 168.125 L 76.023438 166.96875 L 79.007812 166.96875 Z M 79.007812 170.585938 " fill-opacity="1" fill-rule="nonzero"/><path fill="#000000" d="M 91.039062 162.402344 L 91.039062 163.558594 L 86.425781 163.558594 L 86.425781 166.28125 L 90.535156 166.28125 L 90.535156 167.421875 L 86.425781 167.421875 L 86.425781 170.195312 L 91.203125 170.195312 L 91.203125 171.351562 L 85.21875 171.351562 L 85.21875 162.402344 Z M 91.039062 162.402344 " fill-opacity="1" fill-rule="nonzero"/><path fill="#000000" d="M 96.664062 166.886719 C 96.664062 166.070312 96.867188 165.316406 97.28125 164.621094 C 97.691406 163.914062 98.246094 163.355469 98.945312 162.941406 C 99.636719 162.515625 100.398438 162.304688 101.226562 162.304688 C 102.042969 162.304688 102.796875 162.515625 103.492188 162.941406 C 104.199219 163.355469 104.757812 163.914062 105.171875 164.621094 C 105.597656 165.316406 105.808594 166.070312 105.808594 166.886719 C 105.808594 167.710938 105.601562 168.480469 105.1875 169.183594 C 104.773438 169.878906 104.214844 170.433594 103.507812 170.847656 C 102.800781 171.25 102.042969 171.449219 101.226562 171.449219 C 100.398438 171.449219 99.632812 171.25 98.929688 170.847656 C 98.230469 170.449219 97.675781 169.898438 97.265625 169.199219 C 96.863281 168.496094 96.664062 167.726562 96.664062 166.886719 Z M 97.902344 166.902344 C 97.902344 167.511719 98.046875 168.074219 98.339844 168.597656 C 98.632812 169.117188 99.035156 169.535156 99.546875 169.835938 C 100.070312 170.140625 100.632812 170.292969 101.242188 170.292969 C 101.863281 170.292969 102.421875 170.140625 102.921875 169.835938 C 103.429688 169.535156 103.835938 169.117188 104.128906 168.597656 C 104.421875 168.074219 104.570312 167.503906 104.570312 166.886719 C 104.570312 166.265625 104.414062 165.695312 104.113281 165.171875 C 103.820312 164.644531 103.414062 164.222656 102.90625 163.917969 C 102.390625 163.617188 101.835938 163.460938 101.226562 163.460938 C 100.617188 163.460938 100.058594 163.621094 99.546875 163.933594 C 99.035156 164.242188 98.632812 164.660156 98.339844 165.191406 C 98.046875 165.710938 97.902344 166.28125 97.902344 166.902344 Z M 97.902344 166.902344 " fill-opacity="1" fill-rule="nonzero"/><path fill="#000000" d="M 117.050781 162.402344 L 117.050781 163.558594 L 112.941406 163.558594 L 112.941406 166.394531 L 116.527344 166.394531 L 116.527344 167.554688 L 112.941406 167.554688 L 112.941406 171.351562 L 111.734375 171.351562 L 111.734375 162.402344 Z M 117.050781 162.402344 " fill-opacity="1" fill-rule="nonzero"/><path fill="#000000" d="M 128.253906 162.402344 L 128.253906 163.558594 L 124.148438 163.558594 L 124.148438 166.394531 L 127.734375 166.394531 L 127.734375 167.554688 L 124.148438 167.554688 L 124.148438 171.351562 L 122.941406 171.351562 L 122.941406 162.402344 Z M 128.253906 162.402344 " fill-opacity="1" fill-rule="nonzero"/><path fill="#000000" d="M 149.132812 171.742188 L 147.046875 166.394531 L 144.761719 171.777344 L 141.191406 162.449219 L 142.59375 162.449219 L 144.910156 168.957031 L 146.457031 164.894531 L 145.496094 162.449219 L 146.6875 162.449219 L 149.179688 168.808594 L 151.382812 162.449219 L 152.667969 162.449219 Z M 149.132812 171.742188 " fill-opacity="1" fill-rule="nonzero"/><path fill="#000000" d="M 163.058594 169.003906 L 159.617188 169.003906 L 158.65625 171.351562 L 157.464844 171.351562 L 161.378906 162.027344 L 161.460938 162.027344 L 165.371094 171.351562 L 163.988281 171.351562 Z M 162.648438 167.960938 L 161.363281 164.699219 L 160.042969 167.960938 Z M 162.648438 167.960938 " fill-opacity="1" fill-rule="nonzero"/><path fill="#000000" d="M 175.875 171.351562 L 173.773438 168.042969 C 173.707031 168.054688 173.609375 168.058594 173.480469 168.058594 L 172.160156 168.058594 L 172.160156 171.351562 L 170.953125 171.351562 L 170.953125 162.402344 L 173.332031 162.402344 C 173.953125 162.402344 174.5 162.511719 174.980469 162.726562 C 175.457031 162.949219 175.832031 163.261719 176.105469 163.671875 C 176.375 164.089844 176.511719 164.585938 176.511719 165.171875 C 176.511719 165.726562 176.386719 166.242188 176.136719 166.707031 C 175.898438 167.164062 175.527344 167.511719 175.027344 167.75 L 177.277344 171.351562 Z M 173.445312 166.902344 C 174.085938 166.902344 174.546875 166.734375 174.832031 166.394531 C 175.125 166.0625 175.273438 165.671875 175.273438 165.222656 C 175.273438 164.960938 175.210938 164.707031 175.09375 164.457031 C 174.972656 164.195312 174.785156 163.984375 174.523438 163.820312 C 174.261719 163.648438 173.9375 163.558594 173.546875 163.558594 L 172.160156 163.558594 L 172.160156 166.902344 Z M 173.445312 166.902344 " fill-opacity="1" fill-rule="nonzero"/><path fill="#000000" d="M 190.828125 162.402344 L 190.828125 171.644531 L 190.796875 171.644531 L 184.226562 164.976562 L 184.242188 171.351562 L 183.035156 171.351562 L 183.035156 162.140625 L 183.101562 162.140625 L 189.65625 168.875 L 189.621094 162.402344 Z M 190.828125 162.402344 " fill-opacity="1" fill-rule="nonzero"/><path fill="#000000" d="M 203.140625 162.402344 L 203.140625 163.558594 L 198.527344 163.558594 L 198.527344 166.28125 L 202.636719 166.28125 L 202.636719 167.421875 L 198.527344 167.421875 L 198.527344 170.195312 L 203.304688 170.195312 L 203.304688 171.351562 L 197.320312 171.351562 L 197.320312 162.402344 Z M 203.140625 162.402344 " fill-opacity="1" fill-rule="nonzero"/><path fill="#000000" d="M 214.242188 171.351562 L 212.136719 168.042969 C 212.074219 168.054688 211.976562 168.058594 211.84375 168.058594 L 210.523438 168.058594 L 210.523438 171.351562 L 209.316406 171.351562 L 209.316406 162.402344 L 211.699219 162.402344 C 212.316406 162.402344 212.863281 162.511719 213.34375 162.726562 C 213.820312 162.949219 214.195312 163.261719 214.46875 163.671875 C 214.738281 164.089844 214.875 164.585938 214.875 165.171875 C 214.875 165.726562 214.75 166.242188 214.5 166.707031 C 214.261719 167.164062 213.890625 167.511719 213.394531 167.75 L 215.644531 171.351562 Z M 211.8125 166.902344 C 212.453125 166.902344 212.914062 166.734375 213.199219 166.394531 C 213.492188 166.0625 213.636719 165.671875 213.636719 165.222656 C 213.636719 164.960938 213.578125 164.707031 213.457031 164.457031 C 213.335938 164.195312 213.148438 163.984375 212.886719 163.820312 C 212.628906 163.648438 212.300781 163.558594 211.910156 163.558594 L 210.523438 163.558594 L 210.523438 166.902344 Z M 211.8125 166.902344 " fill-opacity="1" fill-rule="nonzero"/></svg>